<?xml version="1.0" encoding="utf-8"?>
<svg viewBox="0 0 512 512" width="512" height="512" xmlns="http://www.w3.org/2000/svg">
  <defs>
    <linearGradient id="c" x1="95.68" x2="419.445" y1="100.067" y2="287.191" gradientTransform="matrix(.47115 0 0 -.47097 46.275 181.168)" gradientUnits="userSpaceOnUse" spreadMethod="pad">
      <stop offset="0" stop-color="#9340ff" />
      <stop offset="1" stop-color="#ff3c5f" />
    </linearGradient>
    <linearGradient id="d" x1="303.702" x2="525.831" y1="79.71" y2="214.6" gradientTransform="matrix(.47115 0 0 -.47097 46.246 181.168)" gradientUnits="userSpaceOnUse" spreadMethod="pad">
      <stop offset="0" stop-color="#9340ff" />
      <stop offset="1" stop-color="#ff3c5f" />
    </linearGradient>
    <linearGradient id="e" x1="100.619" x2="424.383" y1="91.522" y2="278.646" gradientTransform="matrix(.47115 0 0 -.47097 46.246 181)" gradientUnits="userSpaceOnUse" spreadMethod="pad">
      <stop offset="0" stop-color="#9340ff" />
      <stop offset="1" stop-color="#ff3c5f" />
    </linearGradient>
    <linearGradient id="f" x1="239.392" x2="22.46" y1="299.974" y2="193.997" gradientTransform="matrix(.47115 0 0 -.47097 46.276 181)" gradientUnits="userSpaceOnUse" spreadMethod="pad">
      <stop offset="0" stop-color="#9340ff" />
      <stop offset="1" stop-color="#ff3c5f" />
    </linearGradient>
    <clipPath id="a" clipPathUnits="userSpaceOnUse">
      <path d="M 0 7.92 h 1024.5 v 576 H 0 Z" />
    </clipPath>
    <clipPath id="b">
      <path d="M 599.363 75.077 h 3073.374 v 2251.098 H 599.363 Z" clip-rule="evenodd" />
    </clipPath>
  </defs>
  <g clip-path="url(#a)" transform="matrix(.56165 0 0 -.57774 -27.802 404.708)">
    <g clip-path="url(#b)" transform="matrix(.29733 0 0 .22157 -129.743 -8.715)">
      <path fill="url(#c)" transform="matrix(6.13772 0 0 6.13545 602.847 75.077)" d="M 377.371 62.32 0 245.658 V 121.684 L 250.12.168 377.371 62.32 Z" />
      <path fill="url(#d)" transform="matrix(6.13772 0 0 6.13545 602.847 75.077)" d="m 250.09 124.153 249.443 121.505 V 121.684 L 250.12.169 l -.03 123.984 Z" />
      <path fill="url(#e)" transform="matrix(6.13772 0 0 6.13545 602.847 75.077)" d="M 499.533 245.349 249.412 366.865 l -127.251-62.152 377.372-183.339 v 123.975 Z" />
      <path fill="url(#f)" transform="matrix(6.13772 0 0 6.13545 602.847 75.077)" d="m 0 245.349 249.412 121.516.368-124.153 L 0 121.374 v 123.975 Z" />
    </g>
  </g>
</svg>