<?xml version="1.0" standalone="no"?>
<!DOCTYPE svg PUBLIC "-//W3C//DTD SVG 20010904//EN" "http://www.w3.org/TR/2001/REC-SVG-20010904/DTD/svg10.dtd">
<svg version="1.0" xmlns="http://www.w3.org/2000/svg" width="1366.000000pt" height="1366.000000pt" viewBox="0 0 1366.000000 1366.000000" preserveAspectRatio="xMidYMid meet">
<g transform="translate(0.000000,1366.000000) scale(0.100000,-0.100000)" fill="#000000" stroke="none">
	<path d="M6795 10660 c-11 -4 -47 -18 -80 -30 -33 -12 -69 -26 -80 -30 -11 -5 -63 -24 -115 -43 -278 -103 -378 -140 -408 -154 -18 -8 -41 -16 -52 -18 -11 -2 -34 -10 -52 -18 -40 -17 -179 -70 -193 -73 -5 -2 -57 -21 -115 -44 -58 -23 -112 -43 -120 -45 -8 -2 -32 -11 -52 -19 -21 -9 -41 -17 -45 -17 -10 -2 -47 -15 -98 -35 -100 -40 -143 -56 -152 -56 -4 0 -17 -5 -28 -11 -11 -6 -22 -12 -25 -13 -3 0 -12 -3 -20 -7 -8 -3 -49 -17 -90 -32 -41 -15 -89 -33 -107 -41 -17 -8 -36 -14 -42 -14 -6 0 -19 -4 -29 -10 -9 -5 -134 -53 -277 -105 -143 -53 -276 -102 -295 -109 -19 -8 -73 -29 -120 -46 -47 -18 -94 -35 -105 -40 -31 -12 -187 -70 -430 -160 -121 -45 -240 -89 -265 -98 -25 -9 -48 -16 -52 -14 -5 1 -8 -3 -8 -8 0 -6 -6 -10 -14 -10 -12 0 -78 -24 -141 -51 -11 -4 -65 -25 -120 -44 -138 -51 -556 -205 -580 -215 -58 -23 -161 -62 -170 -64 -5 -1 -14 -4 -20 -7 -17 -10 -90 -33 -97 -31 -5 1 -8 -3 -8 -10 0 -6 -3 -9 -6 -6 -5 5 -29 -3 -139 -47 -11 -4 -25 -9 -30 -10 -6 -2 -40 -14 -75 -28 -141 -55 -245 -92 -252 -89 -5 1 -8 -2 -8 -6 0 -5 -6 -9 -12 -9 -7 0 -44 -13 -83 -28 -38 -15 -95 -36 -125 -47 -177 -65 -189 -70 -245 -91 -22 -8 -67 -25 -100 -37 -33 -12 -68 -26 -77 -31 -10 -5 -22 -9 -28 -9 -6 0 -27 -7 -48 -17 -20 -9 -39 -17 -42 -18 -21 -5 -91 -30 -115 -40 -16 -7 -57 -23 -90 -34 -33 -12 -69 -26 -80 -30 -11 -5 -96 -37 -190 -71 -93 -34 -186 -67 -205 -75 -61 -24 -164 -62 -203 -76 l-37 -13 0 -1296 0 -1296 53 -21 c28 -12 115 -44 192 -72 77 -29 148 -56 157 -61 10 -6 26 -10 36 -10 10 0 23 -5 28 -10 6 -6 19 -12 30 -15 25 -5 88 -29 94 -35 3 -3 12 -6 20 -8 15 -3 299 -106 335 -122 22 -9 117 -44 125 -46 3 0 19 -6 35 -13 17 -6 53 -20 80 -30 28 -10 70 -26 95 -36 114 -43 209 -78 250 -92 25 -8 49 -19 54 -24 6 -5 16 -9 24 -9 7 0 41 -11 75 -24 114 -44 421 -158 431 -161 6 -1 25 -7 41 -14 17 -6 53 -20 80 -30 28 -11 59 -23 70 -27 11 -4 22 -8 25 -9 3 -1 12 -5 20 -8 19 -8 133 -51 140 -52 13 -4 47 -17 62 -26 10 -5 25 -9 33 -9 8 0 23 -4 33 -9 21 -11 64 -28 75 -29 4 -1 21 -9 37 -17 16 -8 31 -15 32 -15 2 1 10 -1 18 -4 104 -37 188 -68 200 -73 8 -3 20 -7 25 -9 12 -3 223 -82 250 -94 11 -4 45 -17 75 -28 114 -42 251 -93 435 -162 105 -40 207 -77 228 -82 20 -6 37 -15 37 -21 0 -6 3 -8 6 -4 3 3 36 -6 72 -20 94 -36 162 -61 165 -62 3 0 58 -20 77 -28 8 -3 17 -7 20 -8 3 -1 14 -5 25 -9 11 -4 43 -16 70 -26 86 -31 219 -81 240 -90 16 -7 370 -137 423 -155 7 -2 13 -4 15 -3 1 1 13 -5 27 -12 14 -8 30 -15 35 -16 19 -4 340 -124 357 -134 10 -6 26 -10 36 -10 10 0 23 -5 29 -11 6 -6 17 -11 24 -13 8 -1 48 -14 89 -30 41 -15 100 -37 130 -48 30 -11 64 -23 75 -28 103 -40 134 -51 139 -47 1 1 9 -3 17 -9 8 -6 34 -17 59 -24 25 -7 50 -17 55 -20 6 -4 28 -13 50 -20 22 -6 59 -20 82 -31 24 -10 49 -19 56 -19 8 0 17 -3 21 -7 3 -4 12 -8 19 -9 7 -2 97 -35 201 -74 189 -71 205 -74 261 -51 17 7 66 26 110 42 44 16 94 36 112 44 17 8 35 15 41 15 8 0 72 24 137 50 32 14 69 24 78 22 4 -1 7 2 7 8 0 5 4 10 10 10 9 0 261 91 305 110 11 4 54 21 95 35 41 15 89 33 105 40 29 12 174 66 435 161 69 26 140 53 159 61 18 8 39 16 45 18 20 4 50 16 79 31 15 8 27 13 27 9 0 -3 17 2 38 11 20 9 71 28 112 44 41 15 113 42 160 60 47 17 90 33 95 34 6 2 23 8 38 14 15 7 39 15 53 18 13 3 27 10 30 15 3 5 13 9 22 9 9 1 35 9 57 20 22 11 45 19 51 20 6 0 43 13 83 29 39 17 71 27 71 24 0 -3 6 -1 12 4 7 6 31 16 53 23 22 7 55 19 72 27 18 7 36 14 40 14 5 1 16 5 26 11 10 5 26 11 35 13 20 5 246 90 282 107 14 6 34 13 44 15 11 2 33 10 49 18 17 8 34 15 38 15 4 0 20 5 36 12 15 6 33 12 38 14 6 1 44 16 85 32 163 63 383 144 388 142 1 0 15 6 30 13 15 8 63 26 107 42 44 15 94 33 110 40 17 7 100 39 185 70 85 32 166 62 180 68 14 5 30 11 35 13 15 3 257 93 280 103 11 5 40 16 65 25 25 8 59 21 75 27 17 7 35 13 40 15 41 13 141 50 145 54 4 4 104 41 145 54 6 2 24 8 40 15 17 6 50 19 75 27 25 9 54 20 65 24 11 5 83 32 160 60 77 28 157 59 178 67 21 9 44 16 52 16 8 0 15 4 15 7 0 4 12 10 28 13 15 3 45 14 67 23 22 10 42 18 45 19 3 1 12 4 20 7 8 3 44 16 80 28 36 13 79 29 95 36 17 6 82 31 145 54 63 24 119 46 124 51 5 4 15 5 22 2 8 -3 14 -1 14 4 0 5 6 10 13 10 6 1 37 10 67 21 30 12 109 41 175 65 l120 44 3 1299 2 1299 -137 51 c-429 161 -491 184 -498 184 -4 0 -21 6 -38 14 -18 8 -95 38 -172 66 -77 28 -149 56 -160 61 -11 5 -29 11 -40 14 -11 2 -45 14 -75 26 -63 25 -150 58 -230 87 -30 11 -91 34 -135 50 -74 28 -241 90 -440 164 -44 17 -96 35 -115 41 -19 6 -38 15 -41 20 -3 5 -8 7 -10 6 -4 -3 -101 30 -154 51 -27 11 -58 23 -67 25 -5 2 -10 4 -13 5 -3 1 -8 3 -12 4 -5 1 -25 10 -47 19 -21 9 -41 17 -43 17 -9 0 -278 100 -295 110 -10 6 -22 10 -28 10 -6 0 -27 7 -48 16 -20 10 -41 18 -47 19 -16 5 -128 46 -160 60 -30 12 -101 37 -120 41 -5 1 -28 10 -50 20 -22 10 -44 19 -50 20 -17 4 -449 165 -470 175 -12 6 -27 11 -35 13 -8 2 -28 9 -45 15 -16 7 -109 42 -205 77 -167 62 -261 97 -305 115 -49 19 -170 63 -175 64 -3 0 -30 10 -60 22 -30 12 -143 54 -250 93 -107 40 -209 78 -227 86 -17 8 -37 14 -45 14 -7 0 -24 7 -36 16 -12 8 -22 13 -22 9 0 -3 -13 1 -30 10 -16 8 -32 15 -35 15 -10 0 -26 5 -60 20 -16 7 -36 14 -43 16 -8 1 -48 16 -90 33 -43 16 -176 66 -297 111 -336 124 -438 162 -465 173 -14 6 -29 11 -35 13 -5 1 -23 8 -40 15 -16 6 -34 13 -40 15 -5 2 -39 14 -75 27 -36 14 -110 41 -165 61 -55 20 -109 40 -120 45 -18 8 -31 13 -60 21 -5 2 -48 18 -95 37 -93 36 -87 35 -115 23z m59 -2599 c3 -5 18 -12 33 -15 16 -4 69 -22 118 -41 50 -18 142 -52 205 -75 115 -42 141 -52 183 -69 12 -5 40 -15 62 -22 22 -6 45 -15 50 -19 6 -3 39 -17 75 -29 36 -12 79 -28 95 -36 25 -11 64 -25 85 -30 7 -2 42 -16 65 -25 24 -10 118 -44 125 -46 3 0 16 -5 30 -11 14 -6 77 -29 140 -52 63 -23 124 -45 135 -51 11 -5 49 -19 85 -31 36 -12 70 -26 76 -30 6 -5 19 -10 30 -12 10 -2 32 -9 47 -15 16 -7 31 -12 34 -12 3 0 19 -6 36 -14 18 -7 181 -69 362 -136 182 -67 357 -132 390 -144 124 -47 160 -60 167 -61 3 0 10 -3 14 -7 4 -5 16 -8 26 -8 10 0 18 -4 18 -8 0 -5 6 -9 14 -9 7 0 38 -9 67 -21 30 -11 117 -44 194 -72 77 -29 154 -58 170 -65 17 -7 55 -21 85 -30 30 -10 64 -24 74 -31 20 -13 18 -14 -44 -29 -3 -1 -16 -6 -30 -12 -86 -36 -101 -42 -105 -43 -5 -1 0 1 -125 -44 -52 -19 -124 -46 -160 -59 -194 -74 -230 -86 -230 -79 0 4 -4 2 -8 -4 -4 -5 -36 -20 -72 -33 -36 -12 -74 -26 -85 -31 -11 -5 -54 -21 -95 -36 -41 -14 -93 -34 -115 -43 -22 -10 -52 -21 -67 -25 -15 -3 -40 -11 -55 -18 -15 -6 -30 -12 -33 -13 -3 -1 -16 -6 -30 -13 -14 -6 -83 -32 -155 -57 -71 -26 -145 -54 -164 -62 -18 -8 -41 -17 -50 -18 -9 -2 -17 -4 -18 -5 -2 -2 -6 -3 -10 -5 -5 -1 -19 -6 -33 -12 -14 -6 -65 -25 -115 -43 -49 -17 -99 -36 -110 -41 -21 -9 -153 -58 -170 -63 -5 -2 -17 -6 -25 -9 -8 -4 -168 -63 -355 -132 -187 -69 -349 -130 -360 -135 -34 -14 -59 -23 -79 -27 -11 -2 -24 -7 -30 -12 -6 -5 -45 -20 -87 -35 -103 -35 -261 -94 -279 -104 -10 -6 -40 1 -85 18 -38 16 -176 67 -305 114 -129 48 -269 100 -310 116 -41 16 -138 52 -215 80 -183 67 -246 90 -270 101 -11 4 -56 21 -100 38 -44 16 -118 43 -165 61 -47 17 -89 32 -95 34 -5 2 -17 6 -25 9 -17 7 -281 105 -480 179 -74 27 -145 53 -156 58 -12 5 -84 32 -160 60 -77 28 -152 56 -169 63 -16 6 -32 12 -35 13 -3 0 -12 4 -20 7 -8 3 -78 29 -155 57 -77 28 -148 55 -157 60 -10 6 -22 10 -27 10 -5 0 -26 8 -47 17 -22 9 -43 18 -49 19 -19 4 -260 95 -295 111 -22 10 -30 18 -20 20 8 3 22 7 30 10 8 3 20 7 25 8 10 3 566 210 595 222 8 3 20 7 25 9 6 1 42 14 80 29 39 15 75 28 80 30 6 1 19 6 30 10 110 44 134 52 139 47 3 -3 6 0 6 6 0 7 7 12 17 12 14 0 128 41 198 71 11 4 72 27 135 50 63 22 129 47 145 54 25 11 65 25 85 30 8 3 43 16 65 25 11 5 121 46 245 91 124 46 227 85 230 88 3 4 13 7 22 9 21 3 227 79 248 91 9 5 30 12 48 15 17 4 34 12 37 17 4 5 15 9 26 9 11 0 38 9 59 20 22 11 40 18 40 14 0 -4 6 -2 13 3 6 6 30 16 52 23 22 7 45 16 50 20 6 5 12 8 15 7 7 -2 289 101 314 114 10 6 26 12 35 14 22 6 151 52 176 64 45 22 71 25 79 12z"/>
</g>
</svg>